<svg width="28" height="22" viewBox="0 0 28 22" fill="none" xmlns="http://www.w3.org/2000/svg">
<path d="M27.7071 7.29286L20.7069 0.29273C20.3163 -0.0977454 19.6832 -0.0976281 19.2927 0.292964C19.1052 0.480467 18.9999 0.734651 18.9999 0.999792V3.99984H11.9997C11.4474 3.99984 10.9997 4.44756 10.9997 4.99988C10.9997 5.55219 11.4474 5.99991 11.9997 5.99991H19.9999C20.5522 5.99991 21 5.55219 21 4.99988V3.41378L25.586 7.99986L21 12.586V10.9999C21 10.4476 20.5522 9.99988 19.9999 9.99988H8.99969V6.99983C8.99957 6.44752 8.55173 5.99991 7.99948 6.00003C7.73439 6.00009 7.48015 6.10538 7.29265 6.29283L0.292568 13.293C-0.0978483 13.6835 -0.0978483 14.3165 0.292568 14.707L7.29271 21.7071C7.48021 21.8947 7.73451 22.0001 7.99971 22.0001C8.13114 22.0005 8.26139 21.9747 8.38269 21.9241C8.75629 21.7692 8.99981 21.4046 8.99969 21.0001V18H15.9998C16.5521 18 16.9999 17.5523 16.9999 17C16.9999 16.4477 16.5521 16 15.9998 16H7.99971C7.4474 16 6.99967 16.4477 6.99967 17V18.5861L2.41358 14L6.99967 9.41387V10.9999C6.99967 11.5522 7.4474 11.9999 7.99971 11.9999H18.9999V15C19 15.5523 19.4478 15.9999 20.0001 15.9998C20.2652 15.9997 20.5194 15.8944 20.7069 15.707L27.7071 8.70687C28.0974 8.31633 28.0974 7.68334 27.7071 7.29286Z" fill="#2B2B2B"/>
</svg>
